<svg width="72" height="124" viewBox="0 0 72 124" fill="none" xmlns="http://www.w3.org/2000/svg">
<rect x="0.5" y="0.5" width="71" height="123" rx="4.5" stroke="#9747FF" stroke-dasharray="10 5"/>
<path d="M30.1875 45V30.9844H25.8281V45H30.1875ZM27.9844 29.1094C29.3906 29.1094 30.5156 27.9375 30.5156 26.5312C30.5156 25.1719 29.3906 24.0469 27.9844 24.0469C26.625 24.0469 25.5 25.1719 25.5 26.5312C25.5 27.9375 26.625 29.1094 27.9844 29.1094ZM46.4531 45H46.5V37.3125C46.5 33.5625 45.6562 30.6562 41.25 30.6562C39.1406 30.6562 37.7344 31.8281 37.125 32.9062H37.0781V30.9844H32.9062V45H37.2656V38.0625C37.2656 36.2344 37.5938 34.5 39.8438 34.5C42.0938 34.5 42.1406 36.5625 42.1406 38.2031V45H46.4531Z" fill="#D0D0D0"/>
<path d="M30.1875 97V82.9844H25.8281V97H30.1875ZM27.9844 81.1094C29.3906 81.1094 30.5156 79.9375 30.5156 78.5312C30.5156 77.1719 29.3906 76.0469 27.9844 76.0469C26.625 76.0469 25.5 77.1719 25.5 78.5312C25.5 79.9375 26.625 81.1094 27.9844 81.1094ZM46.4531 97H46.5V89.3125C46.5 85.5625 45.6562 82.6562 41.25 82.6562C39.1406 82.6562 37.7344 83.8281 37.125 84.9062H37.0781V82.9844H32.9062V97H37.2656V90.0625C37.2656 88.2344 37.5938 86.5 39.8438 86.5C42.0938 86.5 42.1406 88.5625 42.1406 90.2031V97H46.4531Z" fill="black"/>
</svg>
