<svg width="32" height="32" viewBox="0 0 32 32" fill="none" xmlns="http://www.w3.org/2000/svg">
<path d="M25.5156 11.115C26.4531 10.4119 27.2969 9.56812 27.9531 8.58374C27.1094 8.95874 26.125 9.23999 25.1406 9.33374C26.1719 8.72437 26.9219 7.78687 27.2969 6.61499C26.3594 7.17749 25.2812 7.59937 24.2031 7.83374C23.2656 6.84937 22 6.28687 20.5938 6.28687C17.875 6.28687 15.6719 8.48999 15.6719 11.2087C15.6719 11.5837 15.7188 11.9587 15.8125 12.3337C11.7344 12.0994 8.07812 10.1306 5.64062 7.17749C5.21875 7.88062 4.98438 8.72437 4.98438 9.66187C4.98438 11.3494 5.82812 12.8494 7.1875 13.74C6.39062 13.6931 5.59375 13.5056 4.9375 13.1306V13.1775C4.9375 15.5681 6.625 17.5369 8.875 18.0056C8.5 18.0994 8.03125 18.1931 7.60938 18.1931C7.28125 18.1931 7 18.1462 6.67188 18.0994C7.28125 20.0681 9.10938 21.4744 11.2656 21.5212C9.57812 22.8337 7.46875 23.6306 5.17188 23.6306C4.75 23.6306 4.375 23.5837 4 23.5369C6.15625 24.9431 8.73438 25.74 11.5469 25.74C20.5938 25.74 25.5156 18.2869 25.5156 11.7712C25.5156 11.5369 25.5156 11.3494 25.5156 11.115Z" fill="black"/>
</svg>
