<svg width="32" height="32" viewBox="0 0 32 32" fill="none" xmlns="http://www.w3.org/2000/svg">
<path d="M12.1094 22.6462C12.1094 22.5525 12.0156 22.4587 11.875 22.4587C11.7344 22.4587 11.6406 22.5525 11.6406 22.6462C11.6406 22.74 11.7344 22.8337 11.875 22.7869C12.0156 22.7869 12.1094 22.74 12.1094 22.6462ZM10.6562 22.4119C10.6562 22.5056 10.75 22.6462 10.8906 22.6462C10.9844 22.6931 11.125 22.6462 11.1719 22.5525C11.1719 22.4587 11.125 22.365 10.9844 22.3181C10.8438 22.2712 10.7031 22.3181 10.6562 22.4119ZM12.7656 22.365C12.625 22.365 12.5312 22.4587 12.5312 22.5994C12.5312 22.6931 12.6719 22.74 12.8125 22.6931C12.9531 22.6462 13.0469 22.5994 13 22.5056C13 22.4119 12.8594 22.3181 12.7656 22.365ZM15.8125 4.36499C9.34375 4.36499 4.375 9.33374 4.375 15.8025C4.375 21.0056 7.60938 25.4587 12.2969 27.0525C12.9062 27.1462 13.0938 26.7712 13.0938 26.49C13.0938 26.1619 13.0938 24.5681 13.0938 23.5837C13.0938 23.5837 9.8125 24.2869 9.10938 22.1775C9.10938 22.1775 8.59375 20.8181 7.84375 20.49C7.84375 20.49 6.76562 19.74 7.89062 19.74C7.89062 19.74 9.0625 19.8337 9.71875 20.9587C10.75 22.7869 12.4375 22.2712 13.1406 21.9431C13.2344 21.1931 13.5156 20.6775 13.8906 20.3494C11.2656 20.0681 8.59375 19.6931 8.59375 15.1931C8.59375 13.8806 8.96875 13.2712 9.71875 12.4275C9.57812 12.0994 9.20312 10.8806 9.85938 9.23999C10.7969 8.95874 13.0938 10.5056 13.0938 10.5056C14.0312 10.2244 15.0156 10.1306 16 10.1306C17.0312 10.1306 18.0156 10.2244 18.9531 10.5056C18.9531 10.5056 21.2031 8.91187 22.1875 9.23999C22.8438 10.8806 22.4219 12.0994 22.3281 12.4275C23.0781 13.2712 23.5469 13.8806 23.5469 15.1931C23.5469 19.6931 20.7812 20.0681 18.1562 20.3494C18.5781 20.7244 18.9531 21.4275 18.9531 22.5525C18.9531 24.0994 18.9062 26.0681 18.9062 26.4431C18.9062 26.7712 19.1406 27.1462 19.75 27.0056C24.4375 25.4587 27.625 21.0056 27.625 15.8025C27.625 9.33374 22.3281 4.36499 15.8125 4.36499ZM8.92188 20.5369C8.82812 20.5837 8.875 20.7244 8.92188 20.8181C9.01562 20.865 9.10938 20.9119 9.20312 20.865C9.25 20.8181 9.25 20.6775 9.15625 20.5837C9.0625 20.5369 8.96875 20.49 8.92188 20.5369ZM8.40625 20.1619C8.35938 20.2556 8.40625 20.3025 8.5 20.3494C8.59375 20.3962 8.6875 20.3962 8.73438 20.3025C8.73438 20.2556 8.6875 20.2087 8.59375 20.1619C8.5 20.115 8.45312 20.115 8.40625 20.1619ZM9.90625 21.8494C9.85938 21.8962 9.85938 22.0369 10 22.1306C10.0938 22.2244 10.2344 22.2712 10.2812 22.1775C10.3281 22.1306 10.3281 21.99 10.2344 21.8962C10.1406 21.8025 10 21.7556 9.90625 21.8494ZM9.39062 21.1462C9.29688 21.1931 9.29688 21.3337 9.39062 21.4275C9.48438 21.5212 9.57812 21.5681 9.67188 21.5212C9.71875 21.4744 9.71875 21.3337 9.67188 21.24C9.57812 21.1462 9.48438 21.0994 9.39062 21.1462Z" fill="black"/>
</svg>
