<svg width="32" height="32" viewBox="0 0 32 32" fill="none" xmlns="http://www.w3.org/2000/svg">
<path d="M19 24.99H9V22.99H19V24.99ZM25 13.325L23.379 3.98999L21.386 4.33599L23.006 13.671L25 13.325ZM19.036 20.262L9.29 19.287L9.104 21.303L18.859 22.182L19.036 20.262ZM19.574 17.675L10.298 15.067L9.772 17.021L19.078 19.521L19.574 17.675ZM20.778 15.262L12.481 10.398L11.452 12.141L19.75 17.006L20.778 15.262ZM22.644 13.795L17.305 5.96599L15.633 7.10599L20.972 14.935L22.644 13.795ZM20 17.99V25.99H8V17.99H6V27.99H22V17.99H20Z" fill="black"/>
</svg>
