<svg width="32" height="32" viewBox="0 0 32 32" fill="none" xmlns="http://www.w3.org/2000/svg">
<path d="M16 10.5994C13 10.5994 10.6094 13.0369 10.6094 15.99C10.6094 18.99 13 21.3806 16 21.3806C18.9531 21.3806 21.3906 18.99 21.3906 15.99C21.3906 13.0369 18.9531 10.5994 16 10.5994ZM16 19.5056C14.0781 19.5056 12.4844 17.9587 12.4844 15.99C12.4844 14.0681 14.0312 12.5212 16 12.5212C17.9219 12.5212 19.4688 14.0681 19.4688 15.99C19.4688 17.9587 17.9219 19.5056 16 19.5056ZM22.8438 10.4119C22.8438 9.70874 22.2812 9.14624 21.5781 9.14624C20.875 9.14624 20.3125 9.70874 20.3125 10.4119C20.3125 11.115 20.875 11.6775 21.5781 11.6775C22.2812 11.6775 22.8438 11.115 22.8438 10.4119ZM26.4062 11.6775C26.3125 9.98999 25.9375 8.48999 24.7188 7.27124C23.5 6.05249 22 5.67749 20.3125 5.58374C18.5781 5.48999 13.375 5.48999 11.6406 5.58374C9.95312 5.67749 8.5 6.05249 7.23438 7.27124C6.01562 8.48999 5.64062 9.98999 5.54688 11.6775C5.45312 13.4119 5.45312 18.615 5.54688 20.3494C5.64062 22.0369 6.01562 23.49 7.23438 24.7556C8.5 25.9744 9.95312 26.3494 11.6406 26.4431C13.375 26.5369 18.5781 26.5369 20.3125 26.4431C22 26.3494 23.5 25.9744 24.7188 24.7556C25.9375 23.49 26.3125 22.0369 26.4062 20.3494C26.5 18.615 26.5 13.4119 26.4062 11.6775ZM24.1562 22.1775C23.8281 23.115 23.0781 23.8181 22.1875 24.1931C20.7812 24.7556 17.5 24.615 16 24.615C14.4531 24.615 11.1719 24.7556 9.8125 24.1931C8.875 23.8181 8.17188 23.115 7.79688 22.1775C7.23438 20.8181 7.375 17.5369 7.375 15.99C7.375 14.49 7.23438 11.2087 7.79688 9.80249C8.17188 8.91187 8.875 8.20874 9.8125 7.83374C11.1719 7.27124 14.4531 7.41187 16 7.41187C17.5 7.41187 20.7812 7.27124 22.1875 7.83374C23.0781 8.16187 23.7812 8.91187 24.1562 9.80249C24.7188 11.2087 24.5781 14.49 24.5781 15.99C24.5781 17.5369 24.7188 20.8181 24.1562 22.1775Z" fill="black"/>
</svg>
