<svg width="32" height="32" viewBox="0 0 32 32" fill="none" xmlns="http://www.w3.org/2000/svg">
<path d="M10.1875 24.99V10.9744H5.82812V24.99H10.1875ZM7.98438 9.09937C9.39062 9.09937 10.5156 7.92749 10.5156 6.52124C10.5156 5.16187 9.39062 4.03687 7.98438 4.03687C6.625 4.03687 5.5 5.16187 5.5 6.52124C5.5 7.92749 6.625 9.09937 7.98438 9.09937ZM26.4531 24.99H26.5V17.3025C26.5 13.5525 25.6562 10.6462 21.25 10.6462C19.1406 10.6462 17.7344 11.8181 17.125 12.8962H17.0781V10.9744H12.9062V24.99H17.2656V18.0525C17.2656 16.2244 17.5938 14.49 19.8438 14.49C22.0938 14.49 22.1406 16.5525 22.1406 18.1931V24.99H26.4531Z" fill="black"/>
</svg>
