<svg width="30" height="31" viewBox="0 0 30 31" fill="none" xmlns="http://www.w3.org/2000/svg">
<path d="M15 21.6446L21 15.463L18.9 13.2994L16.5 15.7721V9.28141H13.5V15.7721L11.1 13.2994L9 15.463L15 21.6446ZM15 30.917C12.925 30.917 10.975 30.5113 9.15 29.7C7.325 28.8886 5.7375 27.7875 4.3875 26.3967C3.0375 25.0058 1.96875 23.3703 1.18125 21.49C0.39375 19.6098 0 17.6008 0 15.463C0 13.3252 0.39375 11.3162 1.18125 9.43595C1.96875 7.55572 3.0375 5.92017 4.3875 4.52932C5.7375 3.13846 7.325 2.03737 9.15 1.22603C10.975 0.4147 12.925 0.0090332 15 0.0090332C17.075 0.0090332 19.025 0.4147 20.85 1.22603C22.675 2.03737 24.2625 3.13846 25.6125 4.52932C26.9625 5.92017 28.0312 7.55572 28.8187 9.43595C29.6062 11.3162 30 13.3252 30 15.463C30 17.6008 29.6062 19.6098 28.8187 21.49C28.0312 23.3703 26.9625 25.0058 25.6125 26.3967C24.2625 27.7875 22.675 28.8886 20.85 29.7C19.025 30.5113 17.075 30.917 15 30.917ZM15 27.8262C18.35 27.8262 21.1875 26.6285 23.5125 24.2331C25.8375 21.8378 27 18.9144 27 15.463C27 12.0116 25.8375 9.08824 23.5125 6.69287C21.1875 4.29751 18.35 3.09983 15 3.09983C11.65 3.09983 8.8125 4.29751 6.4875 6.69287C4.1625 9.08824 3 12.0116 3 15.463C3 18.9144 4.1625 21.8378 6.4875 24.2331C8.8125 26.6285 11.65 27.8262 15 27.8262Z" fill="#1C1B1F"/>
</svg>
