<svg width="32" height="32" viewBox="0 0 32 32" fill="none" xmlns="http://www.w3.org/2000/svg">
<path d="M10.6452 25.7584C10.6452 25.6263 10.5161 25.4941 10.3226 25.4941C10.129 25.4941 10 25.6263 10 25.7584C10 25.8906 10.129 26.0227 10.3226 25.9567C10.5161 25.9567 10.6452 25.8906 10.6452 25.7584ZM8.64516 25.4281C8.64516 25.5602 8.77419 25.7584 8.96774 25.7584C9.09677 25.8245 9.29032 25.7584 9.35484 25.6263C9.35484 25.4941 9.29032 25.362 9.09677 25.2959C8.90323 25.2299 8.70968 25.2959 8.64516 25.4281ZM11.5484 25.362C11.3548 25.362 11.2258 25.4941 11.2258 25.6924C11.2258 25.8245 11.4194 25.8906 11.6129 25.8245C11.8065 25.7584 11.9355 25.6924 11.871 25.5602C11.871 25.4281 11.6774 25.2959 11.5484 25.362ZM15.7419 -0.0100098C6.83871 -0.0100098 0 6.99372 0 16.1118C0 23.4459 4.45161 29.7228 10.9032 31.9693C11.7419 32.1014 12 31.5729 12 31.1764C12 30.7139 12 28.4674 12 27.0799C12 27.0799 7.48387 28.071 6.51613 25.0977C6.51613 25.0977 5.80645 23.1816 4.77419 22.7191C4.77419 22.7191 3.29032 21.6619 4.83871 21.6619C4.83871 21.6619 6.45161 21.7941 7.35484 23.3798C8.77419 25.9567 11.0968 25.2299 12.0645 24.7673C12.1935 23.7102 12.5806 22.9834 13.0968 22.5209C9.48387 22.1244 5.80645 21.5958 5.80645 15.2528C5.80645 13.4028 6.32258 12.5438 7.35484 11.3545C7.16129 10.892 6.64516 9.17413 7.54839 6.86158C8.83871 6.46514 12 8.64555 12 8.64555C13.2903 8.24911 14.6452 8.11696 16 8.11696C17.4194 8.11696 18.7742 8.24911 20.0645 8.64555C20.0645 8.64555 23.1613 6.39907 24.5161 6.86158C25.4194 9.17413 24.8387 10.892 24.7097 11.3545C25.7419 12.5438 26.3871 13.4028 26.3871 15.2528C26.3871 21.5958 22.5806 22.1244 18.9677 22.5209C19.5484 23.0494 20.0645 24.0405 20.0645 25.6263C20.0645 27.8067 20 30.5818 20 31.1103C20 31.5729 20.3226 32.1014 21.1613 31.9032C27.6129 29.7228 32 23.4459 32 16.1118C32 6.99372 24.7097 -0.0100098 15.7419 -0.0100098ZM6.25806 22.7852C6.12903 22.8512 6.19355 23.0494 6.25806 23.1816C6.3871 23.2477 6.51613 23.3137 6.64516 23.2477C6.70968 23.1816 6.70968 22.9834 6.58065 22.8512C6.45161 22.7852 6.32258 22.7191 6.25806 22.7852ZM5.54839 22.2566C5.48387 22.3887 5.54839 22.4548 5.67742 22.5209C5.80645 22.5869 5.93548 22.5869 6 22.4548C6 22.3887 5.93548 22.3226 5.80645 22.2566C5.67742 22.1905 5.6129 22.1905 5.54839 22.2566ZM7.6129 24.6352C7.54839 24.7013 7.54839 24.8995 7.74194 25.0316C7.87097 25.1638 8.06452 25.2299 8.12903 25.0977C8.19355 25.0316 8.19355 24.8334 8.06452 24.7013C7.93548 24.5691 7.74194 24.5031 7.6129 24.6352ZM6.90323 23.6441C6.77419 23.7102 6.77419 23.9084 6.90323 24.0405C7.03226 24.1727 7.16129 24.2388 7.29032 24.1727C7.35484 24.1066 7.35484 23.9084 7.29032 23.7763C7.16129 23.6441 7.03226 23.578 6.90323 23.6441Z" fill="black"/>
</svg>
